<svg xmlns="http://www.w3.org/2000/svg" version="1.1" xmlns:xlink="http://www.w3.org/1999/xlink" xmlns:svgjs="http://svgjs.dev/svgjs" width="2000" height="1247" viewBox="0 0 2000 1247"><g transform="matrix(1,0,0,1,-1.2121212121212466,0.504858299595071)"><svg viewBox="0 0 396 247" data-background-color="#000000" preserveAspectRatio="xMidYMid meet" height="1247" width="2000" xmlns="http://www.w3.org/2000/svg" xmlns:xlink="http://www.w3.org/1999/xlink"><g id="tight-bounds" transform="matrix(1,0,0,1,0.2400000000000091,-0.09999999999999432)"><svg viewBox="0 0 395.52 247.2" height="247.2" width="395.52"><rect width="395.52" height="247.2" fill="url(#ffd15f52-ac12-4208-8806-d62358a45cb6)" mask="url(#677d7852-8697-488a-8db3-a288cb25c8b5)" data-fill-palette-color="tertiary"></rect><g><svg></svg></g><g><svg viewBox="0 0 395.52 247.2" height="247.2" width="395.52"><g transform="matrix(1,0,0,1,90.25155911602211,47.215199999999996)"><svg viewBox="0 0 215.01688176795577 152.7696" height="152.7696" width="215.01688176795577"><g><svg viewBox="0 0 215.01688176795577 152.7696" height="152.7696" width="215.01688176795577"><g><svg viewBox="0 0 215.01688176795577 152.7696" height="152.7696" width="215.01688176795577"><g><svg viewBox="0 0 215.01688176795577 152.7696" height="152.7696" width="215.01688176795577"><g id="textblocktransform"><svg viewBox="0 0 215.01688176795577 152.7696" height="152.7696" width="215.01688176795577" id="textblock"><g><svg viewBox="0 0 215.01688176795577 152.7696" height="152.7696" width="215.01688176795577"><g transform="matrix(1,0,0,1,0,0)"><svg width="215.01688176795577" viewBox="4.5 -35.6 50.95 36.2" height="152.7696" data-palette-color="url(#f1725ab3-e988-4729-b902-57b3b0c1d21f)"></svg></g></svg></g></svg></g></svg></g></svg></g></svg></g></svg></g><path d="M272.553 41.215L272.553 0 25.353 0 25.353 247.2 272.553 247.2 272.553 205.985 258.776 205.985 258.776 233.423 39.13 233.423 39.13 13.777 258.776 13.777 258.776 41.215Z" fill="url(#ffd15f52-ac12-4208-8806-d62358a45cb6)" stroke="transparent" data-fill-palette-color="tertiary"></path></svg></g><defs></defs><mask id="9b1bff1e-7008-4cb7-9f31-8bc95ee65e46"><g id="SvgjsG1079"><svg viewBox="0 0 395.52 247.2" height="247.2" width="395.52"><g><svg></svg></g><g><svg viewBox="0 0 395.52 247.2" height="247.2" width="395.52"><g transform="matrix(1,0,0,1,90.25155911602211,47.215199999999996)"><svg viewBox="0 0 215.01688176795577 152.7696" height="152.7696" width="215.01688176795577"><g><svg viewBox="0 0 215.01688176795577 152.7696" height="152.7696" width="215.01688176795577"><g><svg viewBox="0 0 215.01688176795577 152.7696" height="152.7696" width="215.01688176795577"><g><svg viewBox="0 0 215.01688176795577 152.7696" height="152.7696" width="215.01688176795577"><g id="SvgjsG1078"><svg viewBox="0 0 215.01688176795577 152.7696" height="152.7696" width="215.01688176795577" id="SvgjsSvg1077"><g><svg viewBox="0 0 215.01688176795577 152.7696" height="152.7696" width="215.01688176795577"><g transform="matrix(1,0,0,1,0,0)"><svg width="215.01688176795577" viewBox="4.5 -35.6 50.95 36.2" height="152.7696" data-palette-color="url(#f1725ab3-e988-4729-b902-57b3b0c1d21f)"><path d="M29.55-2.8L26.25 0.6 9.25-16.1 9.25 0 4.5 0 4.5-35 9.25-35 9.25-19.05 24.15-35.15 27.35-32.2 13.7-18 29.55-2.8ZM42.75 0.6L42.75 0.6Q39.1 0.6 36.1-0.38 33.1-1.35 31.05-2.95L31.05-2.95 33.45-6.95Q35.25-5.45 37.5-4.5 39.75-3.55 42.75-3.55L42.75-3.55Q46.35-3.55 48.45-5.05 50.55-6.55 50.55-9.1L50.55-9.1Q50.55-10.55 49.95-11.68 49.35-12.8 47.62-13.88 45.9-14.95 42.55-16.2L42.55-16.2Q38.95-17.6 36.8-19.03 34.65-20.45 33.72-22.28 32.8-24.1 32.8-26.6L32.8-26.6Q32.8-29.1 34.17-31.13 35.55-33.15 38.22-34.38 40.9-35.6 44.7-35.6L44.7-35.6Q47.8-35.6 50.27-34.98 52.75-34.35 55.1-33.2L55.1-33.2 53.35-29.15Q51.65-30.15 49.37-30.83 47.1-31.5 44.6-31.5L44.6-31.5Q41.3-31.5 39.4-30.2 37.5-28.9 37.5-26.85L37.5-26.85Q37.5-25.55 38.05-24.55 38.6-23.55 40.22-22.6 41.85-21.65 45.1-20.45L45.1-20.45Q49-19 51.27-17.4 53.55-15.8 54.5-13.93 55.45-12.05 55.45-9.65L55.45-9.65Q55.45-6.4 53.82-4.1 52.2-1.8 49.32-0.6 46.45 0.6 42.75 0.6Z" opacity="1" transform="matrix(1,0,0,1,0,0)" fill="white" class="wordmark-text-0" id="SvgjsPath1076"></path></svg></g></svg></g></svg></g></svg></g></svg></g></svg></g></svg></g><path d="M272.553 41.215L272.553 0 25.353 0 25.353 247.2 272.553 247.2 272.553 205.985 258.776 205.985 258.776 233.423 39.13 233.423 39.13 13.777 258.776 13.777 258.776 41.215Z" fill="black" stroke="transparent"></path></svg></g><defs><mask></mask></defs></svg><rect width="395.52" height="247.2" fill="black" stroke="none" visibility="hidden"></rect></g></mask><linearGradient x1="0" x2="1" y1="0.578" y2="0.595" id="f1725ab3-e988-4729-b902-57b3b0c1d21f"><stop stop-color="#6ee2f5" offset="0"></stop><stop stop-color="#6454f0" offset="1"></stop></linearGradient><rect width="395.52" height="247.2" fill="url(#f1725ab3-e988-4729-b902-57b3b0c1d21f)" mask="url(#9b1bff1e-7008-4cb7-9f31-8bc95ee65e46)" data-fill-palette-color="primary"></rect><mask id="677d7852-8697-488a-8db3-a288cb25c8b5"><g id="SvgjsG1102"><svg viewBox="0 0 395.52 247.2" height="247.2" width="395.52"><g><svg></svg></g><g><svg viewBox="0 0 395.52 247.2" height="247.2" width="395.52"><g transform="matrix(1,0,0,1,90.25155911602211,47.215199999999996)"><svg viewBox="0 0 215.01688176795577 152.7696" height="152.7696" width="215.01688176795577"><g><svg viewBox="0 0 215.01688176795577 152.7696" height="152.7696" width="215.01688176795577"><g><svg viewBox="0 0 215.01688176795577 152.7696" height="152.7696" width="215.01688176795577"><g><svg viewBox="0 0 215.01688176795577 152.7696" height="152.7696" width="215.01688176795577"><g id="SvgjsG1101"><svg viewBox="0 0 215.01688176795577 152.7696" height="152.7696" width="215.01688176795577" id="SvgjsSvg1100"><g><svg viewBox="0 0 215.01688176795577 152.7696" height="152.7696" width="215.01688176795577"><g transform="matrix(1,0,0,1,0,0)"><svg width="215.01688176795577" viewBox="4.5 -35.6 50.95 36.2" height="152.7696" data-palette-color="url(#f1725ab3-e988-4729-b902-57b3b0c1d21f)"></svg></g></svg></g></svg></g></svg></g></svg></g></svg></g></svg></g><path d="M272.553 41.215L272.553 0 25.353 0 25.353 247.2 272.553 247.2 272.553 205.985 258.776 205.985 258.776 233.423 39.13 233.423 39.13 13.777 258.776 13.777 258.776 41.215Z" fill="white" stroke="transparent"></path></svg></g><defs><mask></mask></defs><mask><g id="SvgjsG1099"><svg viewBox="0 0 395.52 247.2" height="247.2" width="395.52"><g><svg></svg></g><g><svg viewBox="0 0 395.52 247.2" height="247.2" width="395.52"><g transform="matrix(1,0,0,1,90.25155911602211,47.215199999999996)"><svg viewBox="0 0 215.01688176795577 152.7696" height="152.7696" width="215.01688176795577"><g><svg viewBox="0 0 215.01688176795577 152.7696" height="152.7696" width="215.01688176795577"><g><svg viewBox="0 0 215.01688176795577 152.7696" height="152.7696" width="215.01688176795577"><g><svg viewBox="0 0 215.01688176795577 152.7696" height="152.7696" width="215.01688176795577"><g id="SvgjsG1098"><svg viewBox="0 0 215.01688176795577 152.7696" height="152.7696" width="215.01688176795577" id="SvgjsSvg1097"><g><svg viewBox="0 0 215.01688176795577 152.7696" height="152.7696" width="215.01688176795577"><g transform="matrix(1,0,0,1,0,0)"><svg width="215.01688176795577" viewBox="4.5 -35.6 50.95 36.2" height="152.7696" data-palette-color="url(#f1725ab3-e988-4729-b902-57b3b0c1d21f)"><path d="M29.55-2.8L26.25 0.6 9.25-16.1 9.25 0 4.5 0 4.5-35 9.25-35 9.25-19.05 24.15-35.15 27.35-32.2 13.7-18 29.55-2.8ZM42.75 0.6L42.75 0.6Q39.1 0.6 36.1-0.38 33.1-1.35 31.05-2.95L31.05-2.95 33.45-6.95Q35.25-5.45 37.5-4.5 39.75-3.55 42.75-3.55L42.75-3.55Q46.35-3.55 48.45-5.05 50.55-6.55 50.55-9.1L50.55-9.1Q50.55-10.55 49.95-11.68 49.35-12.8 47.62-13.88 45.9-14.95 42.55-16.2L42.55-16.2Q38.95-17.6 36.8-19.03 34.65-20.45 33.72-22.28 32.8-24.1 32.8-26.6L32.8-26.6Q32.8-29.1 34.17-31.13 35.55-33.15 38.22-34.38 40.9-35.6 44.7-35.6L44.7-35.6Q47.8-35.6 50.27-34.98 52.75-34.35 55.1-33.2L55.1-33.2 53.35-29.15Q51.65-30.15 49.37-30.83 47.1-31.5 44.6-31.5L44.6-31.5Q41.3-31.5 39.4-30.2 37.5-28.9 37.5-26.85L37.5-26.85Q37.5-25.55 38.05-24.55 38.6-23.55 40.22-22.6 41.85-21.65 45.1-20.45L45.1-20.45Q49-19 51.27-17.4 53.55-15.8 54.5-13.93 55.45-12.05 55.45-9.65L55.45-9.65Q55.45-6.4 53.82-4.1 52.2-1.8 49.32-0.6 46.45 0.6 42.75 0.6Z" opacity="1" transform="matrix(1,0,0,1,0,0)" fill="black" class="wordmark-text-0" id="SvgjsPath1096"></path></svg></g></svg></g></svg></g></svg></g></svg></g></svg></g></svg></g><path d="M272.553 41.215L272.553 0 25.353 0 25.353 247.2 272.553 247.2 272.553 205.985 258.776 205.985 258.776 233.423 39.13 233.423 39.13 13.777 258.776 13.777 258.776 41.215Z" fill="black" stroke="transparent"></path></svg></g><defs><mask></mask></defs></svg><rect width="395.52" height="247.2" fill="black" stroke="none" visibility="hidden"></rect></g></mask></svg><rect width="395.52" height="247.2" fill="black" stroke="none" visibility="hidden"></rect></g></mask><linearGradient x1="0" x2="1" y1="0.578" y2="0.595" id="ffd15f52-ac12-4208-8806-d62358a45cb6"><stop stop-color="#6ee2f5" offset="0"></stop><stop stop-color="#6454f0" offset="1"></stop></linearGradient></svg><rect width="395.52" height="247.2" fill="none" stroke="none" visibility="hidden"></rect></g></svg></g></svg>